<svg width="96" height="81" viewBox="0 0 96 81" fill="none" xmlns="http://www.w3.org/2000/svg">
<path d="M96 60.1167C96 62.5864 94.8762 64.9549 92.8758 66.7012C90.8754 68.4475 88.1623 69.4286 85.3333 69.4286H10.6667C7.83769 69.4286 5.12458 68.4475 3.12419 66.7012C1.12381 64.9549 0 62.5864 0 60.1167V18.213C0 15.7434 1.12381 13.3748 3.12419 11.6285C5.12458 9.8822 7.83769 8.90112 10.6667 8.90112H85.3333C88.1623 8.90112 90.8754 9.8822 92.8758 11.6285C94.8762 13.3748 96 15.7434 96 18.213V60.1167Z" fill="#75AADB"/>
<path d="M0 29.25H96V51.75H0V29.25Z" fill="#EEEEEE"/>
<path d="M48 29.25L49.3014 34.983L53.104 30.1072L51.704 35.8222L57.4267 32.544L53.5414 37.3748L60.3174 36.1957L54.5387 39.402L61.3334 40.5L54.5387 41.598L60.3174 44.8065L53.5414 43.6252L57.4267 48.4538L51.704 45.1755L53.104 50.8927L49.3014 46.017L48 51.75L46.6987 46.017L42.8987 50.8927L44.296 45.1755L38.5707 48.4538L42.456 43.6252L35.6827 44.8065L41.4614 41.598L34.6667 40.5L41.4614 39.402L35.6827 36.1957L42.456 37.3748L38.5707 32.544L44.296 35.8222L42.8987 30.1072L46.6987 34.983L48 29.25Z" fill="#FCBF49"/>
<path d="M48 32.2425L48.6454 35.0888L48.9547 36.45L49.8587 35.2935L51.7467 32.8725L51.0507 35.7098L50.7174 37.0688L52.0774 36.2902L54.92 34.6635L52.992 37.062L52.0694 38.2095L53.6774 37.9283L57.0427 37.3433L54.1734 38.9363L52.8 39.6945L54.4134 39.9555L57.7867 40.5L54.4134 41.0445L52.8 41.3055L54.1707 42.0683L57.04 43.6613L53.6747 43.074L52.064 42.7927L52.9867 43.9402L54.9147 46.3365L52.0747 44.7098L50.7147 43.9312L51.048 45.2902L51.744 48.1298L49.856 45.7088L48.9547 44.55L48.6454 45.9113L48 48.7575L47.3547 45.9113L47.0454 44.55L46.1414 45.7088L44.2534 48.1298L44.9467 45.2902L45.28 43.9335L43.92 44.712L41.0774 46.3387L43.0054 43.9402L43.928 42.7927L42.3174 43.074L38.9547 43.6613L41.824 42.0683L43.1947 41.3055L41.5814 41.0445L38.2134 40.5L41.5867 39.9555L43.2 39.6945L41.8267 38.9317L38.9574 37.3387L42.32 37.9237L43.928 38.205L43.0054 37.0575L41.0747 34.659L43.9174 36.288L45.2774 37.0665L44.944 35.7098L44.2507 32.8725L46.1387 35.2935L47.0427 36.4523L47.352 35.091L48 32.2425ZM48 29.25L46.6987 34.983L42.8987 30.1072L44.296 35.8245L38.5707 32.5463L42.456 37.377L35.6827 36.198L41.4614 39.4043L34.6667 40.5L41.4614 41.598L35.6827 44.8065L42.456 43.6252L38.5707 48.4538L44.296 45.1755L42.8987 50.8927L46.6987 46.017L48 51.75L49.3014 46.017L53.104 50.8927L51.704 45.1755L57.4267 48.4538L53.5414 43.6252L60.3174 44.8065L54.5387 41.598L61.3334 40.5L54.5387 39.402L60.3174 36.1957L53.5414 37.3748L57.4267 32.544L51.704 35.8222L53.104 30.105L49.3014 34.9808L48 29.25Z" fill="#843511"/>
<path d="M48 45C50.9455 45 53.3334 42.9853 53.3334 40.5C53.3334 38.0147 50.9455 36 48 36C45.0545 36 42.6667 38.0147 42.6667 40.5C42.6667 42.9853 45.0545 45 48 45Z" fill="#FCBF49"/>
<path d="M48 45.2813C44.8746 45.2813 42.3333 43.137 42.3333 40.5C42.3333 37.863 44.8746 35.7188 48 35.7188C51.1253 35.7188 53.6666 37.863 53.6666 40.5C53.6666 43.137 51.1253 45.2813 48 45.2813ZM48 36.2813C45.2426 36.2813 43 38.1735 43 40.5C43 42.8265 45.2426 44.7188 48 44.7188C50.7573 44.7188 53 42.8265 53 40.5C53 38.1735 50.7573 36.2813 48 36.2813Z" fill="#843511"/>
<path d="M47.4694 39.9915C47.4694 40.3403 46.7734 40.6215 45.9147 40.6215C45.0534 40.6215 44.3574 40.3403 44.3574 39.9915C44.3574 39.6428 45.0534 39.3615 45.9147 39.3615C46.776 39.3615 47.4694 39.6428 47.4694 39.9915ZM51.6107 39.9375C51.6107 39.5753 50.9014 39.2805 50.0267 39.2805C49.152 39.2805 48.4427 39.573 48.4427 39.9375C48.4427 40.302 49.152 40.5945 50.0267 40.5945C50.904 40.5945 51.6107 40.2998 51.6107 39.9375Z" fill="#C16540"/>
<path d="M46.568 42.4665C46.568 42.183 47.224 41.9512 48.0293 41.9512C48.8347 41.9512 49.4907 42.1807 49.4907 42.4665C49.4907 42.75 48.8347 42.9817 48.0293 42.9817C47.224 42.9817 46.568 42.75 46.568 42.4665Z" fill="#ED8662"/>
</svg>
