<svg width="185" height="811" viewBox="0 0 185 811" fill="none" xmlns="http://www.w3.org/2000/svg">
<rect x="23" width="20" height="811" rx="10" fill="#737373"/>
<g filter="url(#filter0_d_27_9)">
<ellipse cx="33.5" cy="89.5" rx="29.5" ry="27.5" fill="#64734B"/>
</g>
<g filter="url(#filter1_d_27_9)">
<ellipse cx="33.5" cy="328.5" rx="29.5" ry="27.5" fill="#64734B"/>
</g>
<g filter="url(#filter2_d_27_9)">
<ellipse cx="33.5" cy="433.5" rx="29.5" ry="27.5" fill="#64734B"/>
</g>
<g filter="url(#filter3_d_27_9)">
<ellipse cx="33.5" cy="620.5" rx="29.5" ry="27.5" fill="#64734B"/>
</g>
<path d="M87.7683 99L86.9763 97.032L91.8723 91.68C92.1443 91.376 92.4403 91.032 92.7603 90.648C93.0803 90.264 93.3923 89.872 93.6963 89.472C94.0003 89.056 94.2403 88.656 94.4163 88.272C94.6083 87.888 94.7043 87.536 94.7043 87.216C94.7043 86.896 94.6323 86.616 94.4883 86.376C94.3443 86.136 94.1363 85.952 93.8643 85.824C93.5923 85.68 93.2483 85.608 92.8323 85.608C92.4643 85.608 92.1123 85.704 91.7763 85.896C91.4403 86.072 91.1203 86.352 90.8163 86.736C90.5283 87.12 90.2563 87.592 90.0003 88.152L86.9763 86.52C87.3123 85.592 87.7843 84.776 88.3923 84.072C89.0163 83.352 89.7443 82.8 90.5763 82.416C91.4083 82.016 92.2963 81.816 93.2403 81.816C94.2323 81.832 95.1283 82.048 95.9283 82.464C96.7283 82.864 97.3603 83.432 97.8243 84.168C98.3043 84.888 98.5443 85.736 98.5443 86.712C98.5443 87.048 98.5043 87.4 98.4243 87.768C98.3443 88.136 98.2243 88.52 98.0643 88.92C97.9043 89.304 97.6883 89.72 97.4163 90.168C97.1603 90.6 96.8483 91.056 96.4803 91.536C96.1123 92.016 95.6803 92.528 95.1843 93.072L91.3683 97.224L90.8883 95.4H99.2883V99H87.7683ZM108.789 99.24C107.285 99.24 105.997 98.896 104.925 98.208C103.869 97.52 103.061 96.536 102.501 95.256C101.941 93.96 101.661 92.408 101.661 90.6C101.661 88.792 101.941 87.248 102.501 85.968C103.061 84.672 103.869 83.68 104.925 82.992C105.997 82.304 107.285 81.96 108.789 81.96C110.293 81.96 111.581 82.304 112.653 82.992C113.725 83.68 114.541 84.672 115.101 85.968C115.661 87.248 115.941 88.792 115.941 90.6C115.941 92.408 115.661 93.96 115.101 95.256C114.541 96.536 113.725 97.52 112.653 98.208C111.581 98.896 110.293 99.24 108.789 99.24ZM108.789 95.784C109.829 95.784 110.629 95.336 111.189 94.44C111.765 93.544 112.053 92.264 112.053 90.6C112.053 88.888 111.765 87.576 111.189 86.664C110.629 85.736 109.829 85.272 108.789 85.272C107.749 85.272 106.941 85.736 106.365 86.664C105.805 87.576 105.525 88.888 105.525 90.6C105.525 92.264 105.805 93.544 106.365 94.44C106.941 95.336 107.749 95.784 108.789 95.784ZM123.16 97.824V84.192L124.048 86.232L120.448 87.936L119.752 84.288L124.528 81.96H127.168V97.824H123.16ZM120.088 99V95.4H130.312V99H120.088ZM139.805 99C138.941 99 138.125 98.848 137.357 98.544C136.605 98.224 135.949 97.792 135.389 97.248C134.829 96.688 134.381 96.04 134.045 95.304C133.725 94.568 133.565 93.776 133.565 92.928C133.565 92.336 133.629 91.768 133.757 91.224C133.885 90.664 134.061 90.104 134.285 89.544C134.525 88.968 134.805 88.384 135.125 87.792C135.461 87.184 135.829 86.544 136.229 85.872L138.581 81.936H142.349L142.445 82.176L139.181 87.312C138.765 87.984 138.405 88.616 138.101 89.208C137.797 89.784 137.525 90.36 137.285 90.936C137.045 91.512 136.805 92.12 136.565 92.76L135.797 91.104C135.957 90.544 136.213 90.032 136.565 89.568C136.917 89.088 137.325 88.68 137.789 88.344C138.269 87.992 138.765 87.728 139.277 87.552C139.789 87.36 140.293 87.264 140.789 87.264C141.733 87.264 142.597 87.52 143.381 88.032C144.181 88.528 144.821 89.192 145.301 90.024C145.781 90.856 146.021 91.768 146.021 92.76C146.021 93.944 145.749 95.008 145.205 95.952C144.677 96.896 143.941 97.64 142.997 98.184C142.069 98.728 141.005 99 139.805 99ZM139.853 95.64C140.365 95.64 140.813 95.528 141.197 95.304C141.597 95.08 141.909 94.768 142.133 94.368C142.357 93.952 142.469 93.48 142.469 92.952C142.469 92.504 142.349 92.088 142.109 91.704C141.885 91.304 141.573 90.984 141.173 90.744C140.789 90.488 140.357 90.36 139.877 90.36C139.365 90.36 138.901 90.48 138.485 90.72C138.085 90.944 137.773 91.256 137.549 91.656C137.325 92.04 137.213 92.472 137.213 92.952C137.213 93.464 137.325 93.928 137.549 94.344C137.773 94.744 138.085 95.064 138.485 95.304C138.885 95.528 139.341 95.64 139.853 95.64Z" fill="black"/>
<path d="M87.6433 338L86.8513 336.032L91.7473 330.68C92.0193 330.376 92.3153 330.032 92.6353 329.648C92.9553 329.264 93.2673 328.872 93.5713 328.472C93.8753 328.056 94.1153 327.656 94.2913 327.272C94.4833 326.888 94.5793 326.536 94.5793 326.216C94.5793 325.896 94.5073 325.616 94.3633 325.376C94.2193 325.136 94.0113 324.952 93.7393 324.824C93.4673 324.68 93.1233 324.608 92.7073 324.608C92.3393 324.608 91.9873 324.704 91.6513 324.896C91.3153 325.072 90.9953 325.352 90.6913 325.736C90.4033 326.12 90.1313 326.592 89.8753 327.152L86.8513 325.52C87.1873 324.592 87.6593 323.776 88.2673 323.072C88.8913 322.352 89.6193 321.8 90.4513 321.416C91.2833 321.016 92.1713 320.816 93.1153 320.816C94.1073 320.832 95.0033 321.048 95.8033 321.464C96.6033 321.864 97.2353 322.432 97.6993 323.168C98.1793 323.888 98.4193 324.736 98.4193 325.712C98.4193 326.048 98.3793 326.4 98.2993 326.768C98.2193 327.136 98.0993 327.52 97.9393 327.92C97.7793 328.304 97.5633 328.72 97.2913 329.168C97.0353 329.6 96.7233 330.056 96.3553 330.536C95.9873 331.016 95.5553 331.528 95.0593 332.072L91.2433 336.224L90.7633 334.4H99.1633V338H87.6433ZM108.664 338.24C107.16 338.24 105.872 337.896 104.8 337.208C103.744 336.52 102.936 335.536 102.376 334.256C101.816 332.96 101.536 331.408 101.536 329.6C101.536 327.792 101.816 326.248 102.376 324.968C102.936 323.672 103.744 322.68 104.8 321.992C105.872 321.304 107.16 320.96 108.664 320.96C110.168 320.96 111.456 321.304 112.528 321.992C113.6 322.68 114.416 323.672 114.976 324.968C115.536 326.248 115.816 327.792 115.816 329.6C115.816 331.408 115.536 332.96 114.976 334.256C114.416 335.536 113.6 336.52 112.528 337.208C111.456 337.896 110.168 338.24 108.664 338.24ZM108.664 334.784C109.704 334.784 110.504 334.336 111.064 333.44C111.64 332.544 111.928 331.264 111.928 329.6C111.928 327.888 111.64 326.576 111.064 325.664C110.504 324.736 109.704 324.272 108.664 324.272C107.624 324.272 106.816 324.736 106.24 325.664C105.68 326.576 105.4 327.888 105.4 329.6C105.4 331.264 105.68 332.544 106.24 333.44C106.816 334.336 107.624 334.784 108.664 334.784ZM119.387 338L118.595 336.032L123.491 330.68C123.763 330.376 124.059 330.032 124.379 329.648C124.699 329.264 125.011 328.872 125.315 328.472C125.619 328.056 125.859 327.656 126.035 327.272C126.227 326.888 126.323 326.536 126.323 326.216C126.323 325.896 126.251 325.616 126.107 325.376C125.963 325.136 125.755 324.952 125.483 324.824C125.211 324.68 124.867 324.608 124.451 324.608C124.083 324.608 123.731 324.704 123.395 324.896C123.059 325.072 122.739 325.352 122.435 325.736C122.147 326.12 121.875 326.592 121.619 327.152L118.595 325.52C118.931 324.592 119.403 323.776 120.011 323.072C120.635 322.352 121.363 321.8 122.195 321.416C123.027 321.016 123.915 320.816 124.859 320.816C125.851 320.832 126.747 321.048 127.547 321.464C128.347 321.864 128.979 322.432 129.443 323.168C129.923 323.888 130.163 324.736 130.163 325.712C130.163 326.048 130.123 326.4 130.043 326.768C129.963 327.136 129.843 327.52 129.683 327.92C129.523 328.304 129.307 328.72 129.035 329.168C128.779 329.6 128.467 330.056 128.099 330.536C127.731 331.016 127.299 331.528 126.803 332.072L122.987 336.224L122.507 334.4H130.907V338H119.387ZM137.384 336.824V323.192L138.272 325.232L134.672 326.936L133.976 323.288L138.752 320.96H141.392V336.824H137.384ZM134.312 338V334.4H144.536V338H134.312Z" fill="black"/>
<path d="M87.7957 443L87.0037 441.032L91.8997 435.68C92.1717 435.376 92.4677 435.032 92.7877 434.648C93.1077 434.264 93.4197 433.872 93.7237 433.472C94.0277 433.056 94.2677 432.656 94.4437 432.272C94.6357 431.888 94.7317 431.536 94.7317 431.216C94.7317 430.896 94.6597 430.616 94.5157 430.376C94.3717 430.136 94.1637 429.952 93.8917 429.824C93.6197 429.68 93.2757 429.608 92.8597 429.608C92.4917 429.608 92.1397 429.704 91.8037 429.896C91.4677 430.072 91.1477 430.352 90.8437 430.736C90.5557 431.12 90.2837 431.592 90.0277 432.152L87.0037 430.52C87.3397 429.592 87.8117 428.776 88.4197 428.072C89.0437 427.352 89.7717 426.8 90.6037 426.416C91.4357 426.016 92.3237 425.816 93.2677 425.816C94.2597 425.832 95.1557 426.048 95.9557 426.464C96.7557 426.864 97.3877 427.432 97.8517 428.168C98.3317 428.888 98.5717 429.736 98.5717 430.712C98.5717 431.048 98.5317 431.4 98.4517 431.768C98.3717 432.136 98.2517 432.52 98.0917 432.92C97.9317 433.304 97.7157 433.72 97.4437 434.168C97.1877 434.6 96.8757 435.056 96.5077 435.536C96.1397 436.016 95.7077 436.528 95.2117 437.072L91.3957 441.224L90.9157 439.4H99.3157V443H87.7957ZM108.816 443.24C107.312 443.24 106.024 442.896 104.952 442.208C103.896 441.52 103.088 440.536 102.528 439.256C101.968 437.96 101.688 436.408 101.688 434.6C101.688 432.792 101.968 431.248 102.528 429.968C103.088 428.672 103.896 427.68 104.952 426.992C106.024 426.304 107.312 425.96 108.816 425.96C110.32 425.96 111.608 426.304 112.68 426.992C113.752 427.68 114.568 428.672 115.128 429.968C115.688 431.248 115.968 432.792 115.968 434.6C115.968 436.408 115.688 437.96 115.128 439.256C114.568 440.536 113.752 441.52 112.68 442.208C111.608 442.896 110.32 443.24 108.816 443.24ZM108.816 439.784C109.856 439.784 110.656 439.336 111.216 438.44C111.792 437.544 112.08 436.264 112.08 434.6C112.08 432.888 111.792 431.576 111.216 430.664C110.656 429.736 109.856 429.272 108.816 429.272C107.776 429.272 106.968 429.736 106.392 430.664C105.832 431.576 105.552 432.888 105.552 434.6C105.552 436.264 105.832 437.544 106.392 438.44C106.968 439.336 107.776 439.784 108.816 439.784ZM119.539 443L118.747 441.032L123.643 435.68C123.915 435.376 124.211 435.032 124.531 434.648C124.851 434.264 125.163 433.872 125.467 433.472C125.771 433.056 126.011 432.656 126.187 432.272C126.379 431.888 126.475 431.536 126.475 431.216C126.475 430.896 126.403 430.616 126.259 430.376C126.115 430.136 125.907 429.952 125.635 429.824C125.363 429.68 125.019 429.608 124.603 429.608C124.235 429.608 123.883 429.704 123.547 429.896C123.211 430.072 122.891 430.352 122.587 430.736C122.299 431.12 122.027 431.592 121.771 432.152L118.747 430.52C119.083 429.592 119.555 428.776 120.163 428.072C120.787 427.352 121.515 426.8 122.347 426.416C123.179 426.016 124.067 425.816 125.011 425.816C126.003 425.832 126.899 426.048 127.699 426.464C128.499 426.864 129.131 427.432 129.595 428.168C130.075 428.888 130.315 429.736 130.315 430.712C130.315 431.048 130.275 431.4 130.195 431.768C130.115 432.136 129.995 432.52 129.835 432.92C129.675 433.304 129.459 433.72 129.187 434.168C128.931 434.6 128.619 435.056 128.251 435.536C127.883 436.016 127.451 436.528 126.955 437.072L123.139 441.224L122.659 439.4H131.059V443H119.539ZM133.888 443L133.096 441.032L137.992 435.68C138.264 435.376 138.56 435.032 138.88 434.648C139.2 434.264 139.512 433.872 139.816 433.472C140.12 433.056 140.36 432.656 140.536 432.272C140.728 431.888 140.824 431.536 140.824 431.216C140.824 430.896 140.752 430.616 140.608 430.376C140.464 430.136 140.256 429.952 139.984 429.824C139.712 429.68 139.368 429.608 138.952 429.608C138.584 429.608 138.232 429.704 137.896 429.896C137.56 430.072 137.24 430.352 136.936 430.736C136.648 431.12 136.376 431.592 136.12 432.152L133.096 430.52C133.432 429.592 133.904 428.776 134.512 428.072C135.136 427.352 135.864 426.8 136.696 426.416C137.528 426.016 138.416 425.816 139.36 425.816C140.352 425.832 141.248 426.048 142.048 426.464C142.848 426.864 143.48 427.432 143.944 428.168C144.424 428.888 144.664 429.736 144.664 430.712C144.664 431.048 144.624 431.4 144.544 431.768C144.464 432.136 144.344 432.52 144.184 432.92C144.024 433.304 143.808 433.72 143.536 434.168C143.28 434.6 142.968 435.056 142.6 435.536C142.232 436.016 141.8 436.528 141.304 437.072L137.488 441.224L137.008 439.4H145.408V443H133.888Z" fill="black"/>
<path d="M88.4729 630V613.2H95.7209C96.7769 613.2 97.7129 613.44 98.5289 613.92C99.3609 614.4 100.017 615.056 100.497 615.888C100.993 616.72 101.241 617.656 101.241 618.696C101.241 619.784 100.993 620.76 100.497 621.624C100.017 622.472 99.3609 623.144 98.5289 623.64C97.7129 624.136 96.7769 624.384 95.7209 624.384H92.5529V630H88.4729ZM92.4809 620.808H95.1449C95.4969 620.808 95.8169 620.72 96.1049 620.544C96.3929 620.368 96.6249 620.128 96.8009 619.824C96.9769 619.52 97.0649 619.168 97.0649 618.768C97.0649 618.352 96.9769 618 96.8009 617.712C96.6249 617.424 96.3929 617.2 96.1049 617.04C95.8169 616.88 95.4969 616.8 95.1449 616.8H92.4809V620.808ZM105.156 630V617.256H108.804L108.972 621.408L108.252 620.616C108.444 619.928 108.756 619.312 109.188 618.768C109.636 618.224 110.156 617.792 110.748 617.472C111.34 617.152 111.972 616.992 112.644 616.992C112.932 616.992 113.196 617.016 113.436 617.064C113.692 617.112 113.924 617.168 114.132 617.232L113.076 621.48C112.9 621.368 112.66 621.28 112.356 621.216C112.068 621.136 111.764 621.096 111.444 621.096C111.092 621.096 110.764 621.16 110.46 621.288C110.156 621.4 109.9 621.568 109.692 621.792C109.484 622.016 109.316 622.28 109.188 622.584C109.076 622.888 109.02 623.232 109.02 623.616V630H105.156ZM122.81 630.24C121.402 630.24 120.178 629.96 119.138 629.4C118.098 628.824 117.29 628.048 116.714 627.072C116.138 626.08 115.85 624.952 115.85 623.688C115.85 622.712 116.01 621.816 116.33 621C116.65 620.184 117.098 619.48 117.674 618.888C118.25 618.28 118.93 617.816 119.714 617.496C120.514 617.16 121.386 616.992 122.33 616.992C123.226 616.992 124.042 617.152 124.778 617.472C125.53 617.792 126.178 618.24 126.722 618.816C127.266 619.392 127.682 620.072 127.97 620.856C128.258 621.64 128.386 622.496 128.354 623.424L128.33 624.456H118.178L117.626 622.296H125.21L124.802 622.752V622.272C124.77 621.872 124.642 621.52 124.418 621.216C124.21 620.896 123.93 620.648 123.578 620.472C123.226 620.296 122.826 620.208 122.378 620.208C121.754 620.208 121.218 620.336 120.77 620.592C120.338 620.832 120.01 621.192 119.786 621.672C119.562 622.136 119.45 622.712 119.45 623.4C119.45 624.104 119.594 624.72 119.882 625.248C120.186 625.76 120.618 626.16 121.178 626.448C121.754 626.736 122.434 626.88 123.218 626.88C123.762 626.88 124.242 626.8 124.658 626.64C125.09 626.48 125.554 626.208 126.05 625.824L127.85 628.368C127.354 628.8 126.826 629.152 126.266 629.424C125.706 629.696 125.13 629.896 124.538 630.024C123.962 630.168 123.386 630.24 122.81 630.24ZM136.297 630.24C135.049 630.24 133.945 630.04 132.985 629.64C132.041 629.24 131.289 628.704 130.729 628.032L133.057 626.016C133.553 626.512 134.113 626.88 134.737 627.12C135.361 627.344 135.953 627.456 136.513 627.456C136.737 627.456 136.937 627.432 137.113 627.384C137.289 627.336 137.433 627.272 137.545 627.192C137.673 627.096 137.769 626.992 137.833 626.88C137.897 626.752 137.929 626.608 137.929 626.448C137.929 626.128 137.785 625.88 137.497 625.704C137.353 625.624 137.113 625.528 136.777 625.416C136.441 625.304 136.009 625.176 135.481 625.032C134.729 624.84 134.073 624.616 133.513 624.36C132.969 624.088 132.521 623.776 132.169 623.424C131.849 623.088 131.601 622.72 131.425 622.32C131.249 621.904 131.161 621.44 131.161 620.928C131.161 620.336 131.297 619.8 131.569 619.32C131.857 618.84 132.233 618.424 132.697 618.072C133.177 617.72 133.721 617.456 134.329 617.28C134.953 617.088 135.593 616.992 136.249 616.992C136.953 616.992 137.625 617.072 138.265 617.232C138.905 617.392 139.497 617.616 140.041 617.904C140.601 618.192 141.097 618.536 141.529 618.936L139.513 621.192C139.225 620.92 138.897 620.68 138.529 620.472C138.177 620.248 137.809 620.072 137.425 619.944C137.041 619.816 136.689 619.752 136.369 619.752C136.129 619.752 135.913 619.776 135.721 619.824C135.545 619.856 135.393 619.92 135.265 620.016C135.137 620.096 135.041 620.2 134.977 620.328C134.913 620.44 134.881 620.576 134.881 620.736C134.881 620.896 134.921 621.048 135.001 621.192C135.097 621.336 135.225 621.456 135.385 621.552C135.545 621.648 135.801 621.76 136.153 621.888C136.505 622 136.985 622.144 137.593 622.32C138.345 622.528 138.993 622.76 139.537 623.016C140.081 623.272 140.513 623.576 140.833 623.928C141.089 624.2 141.281 624.52 141.409 624.888C141.537 625.24 141.601 625.624 141.601 626.04C141.601 626.856 141.369 627.584 140.905 628.224C140.457 628.848 139.833 629.344 139.033 629.712C138.233 630.064 137.321 630.24 136.297 630.24ZM151.156 630.24C149.748 630.24 148.524 629.96 147.484 629.4C146.444 628.824 145.636 628.048 145.06 627.072C144.484 626.08 144.196 624.952 144.196 623.688C144.196 622.712 144.356 621.816 144.676 621C144.996 620.184 145.444 619.48 146.02 618.888C146.596 618.28 147.276 617.816 148.06 617.496C148.86 617.16 149.732 616.992 150.676 616.992C151.572 616.992 152.388 617.152 153.124 617.472C153.876 617.792 154.524 618.24 155.068 618.816C155.612 619.392 156.028 620.072 156.316 620.856C156.604 621.64 156.732 622.496 156.7 623.424L156.676 624.456H146.524L145.972 622.296H153.556L153.148 622.752V622.272C153.116 621.872 152.988 621.52 152.764 621.216C152.556 620.896 152.276 620.648 151.924 620.472C151.572 620.296 151.172 620.208 150.724 620.208C150.1 620.208 149.564 620.336 149.116 620.592C148.684 620.832 148.356 621.192 148.132 621.672C147.908 622.136 147.796 622.712 147.796 623.4C147.796 624.104 147.94 624.72 148.228 625.248C148.532 625.76 148.964 626.16 149.524 626.448C150.1 626.736 150.78 626.88 151.564 626.88C152.108 626.88 152.588 626.8 153.004 626.64C153.436 626.48 153.9 626.208 154.396 625.824L156.196 628.368C155.7 628.8 155.172 629.152 154.612 629.424C154.052 629.696 153.476 629.896 152.884 630.024C152.308 630.168 151.732 630.24 151.156 630.24ZM160.346 630V617.256H163.994L164.114 619.848L163.346 620.136C163.522 619.56 163.834 619.04 164.282 618.576C164.746 618.096 165.298 617.712 165.938 617.424C166.578 617.136 167.25 616.992 167.954 616.992C168.914 616.992 169.722 617.192 170.378 617.592C171.034 617.976 171.53 618.56 171.866 619.344C172.202 620.112 172.37 621.056 172.37 622.176V630H168.506V622.488C168.506 621.976 168.434 621.552 168.29 621.216C168.146 620.88 167.922 620.632 167.618 620.472C167.33 620.296 166.97 620.216 166.538 620.232C166.202 620.232 165.89 620.288 165.602 620.4C165.314 620.496 165.066 620.648 164.858 620.856C164.65 621.048 164.482 621.272 164.354 621.528C164.242 621.784 164.186 622.064 164.186 622.368V630H162.29C161.842 630 161.458 630 161.138 630C160.818 630 160.554 630 160.346 630ZM177.837 630V614.04H181.677V630H177.837ZM175.581 620.616V617.256H184.149V620.616H175.581Z" fill="black"/>
<defs>
<filter id="filter0_d_27_9" x="0" y="62" width="67" height="63" filterUnits="userSpaceOnUse" color-interpolation-filters="sRGB">
<feFlood flood-opacity="0" result="BackgroundImageFix"/>
<feColorMatrix in="SourceAlpha" type="matrix" values="0 0 0 0 0 0 0 0 0 0 0 0 0 0 0 0 0 0 127 0" result="hardAlpha"/>
<feOffset dy="4"/>
<feGaussianBlur stdDeviation="2"/>
<feComposite in2="hardAlpha" operator="out"/>
<feColorMatrix type="matrix" values="0 0 0 0 0 0 0 0 0 0 0 0 0 0 0 0 0 0 0.25 0"/>
<feBlend mode="normal" in2="BackgroundImageFix" result="effect1_dropShadow_27_9"/>
<feBlend mode="normal" in="SourceGraphic" in2="effect1_dropShadow_27_9" result="shape"/>
</filter>
<filter id="filter1_d_27_9" x="0" y="301" width="67" height="63" filterUnits="userSpaceOnUse" color-interpolation-filters="sRGB">
<feFlood flood-opacity="0" result="BackgroundImageFix"/>
<feColorMatrix in="SourceAlpha" type="matrix" values="0 0 0 0 0 0 0 0 0 0 0 0 0 0 0 0 0 0 127 0" result="hardAlpha"/>
<feOffset dy="4"/>
<feGaussianBlur stdDeviation="2"/>
<feComposite in2="hardAlpha" operator="out"/>
<feColorMatrix type="matrix" values="0 0 0 0 0 0 0 0 0 0 0 0 0 0 0 0 0 0 0.25 0"/>
<feBlend mode="normal" in2="BackgroundImageFix" result="effect1_dropShadow_27_9"/>
<feBlend mode="normal" in="SourceGraphic" in2="effect1_dropShadow_27_9" result="shape"/>
</filter>
<filter id="filter2_d_27_9" x="0" y="406" width="67" height="63" filterUnits="userSpaceOnUse" color-interpolation-filters="sRGB">
<feFlood flood-opacity="0" result="BackgroundImageFix"/>
<feColorMatrix in="SourceAlpha" type="matrix" values="0 0 0 0 0 0 0 0 0 0 0 0 0 0 0 0 0 0 127 0" result="hardAlpha"/>
<feOffset dy="4"/>
<feGaussianBlur stdDeviation="2"/>
<feComposite in2="hardAlpha" operator="out"/>
<feColorMatrix type="matrix" values="0 0 0 0 0 0 0 0 0 0 0 0 0 0 0 0 0 0 0.25 0"/>
<feBlend mode="normal" in2="BackgroundImageFix" result="effect1_dropShadow_27_9"/>
<feBlend mode="normal" in="SourceGraphic" in2="effect1_dropShadow_27_9" result="shape"/>
</filter>
<filter id="filter3_d_27_9" x="0" y="593" width="67" height="63" filterUnits="userSpaceOnUse" color-interpolation-filters="sRGB">
<feFlood flood-opacity="0" result="BackgroundImageFix"/>
<feColorMatrix in="SourceAlpha" type="matrix" values="0 0 0 0 0 0 0 0 0 0 0 0 0 0 0 0 0 0 127 0" result="hardAlpha"/>
<feOffset dy="4"/>
<feGaussianBlur stdDeviation="2"/>
<feComposite in2="hardAlpha" operator="out"/>
<feColorMatrix type="matrix" values="0 0 0 0 0 0 0 0 0 0 0 0 0 0 0 0 0 0 0.25 0"/>
<feBlend mode="normal" in2="BackgroundImageFix" result="effect1_dropShadow_27_9"/>
<feBlend mode="normal" in="SourceGraphic" in2="effect1_dropShadow_27_9" result="shape"/>
</filter>
</defs>
</svg>
